<svg id="SvgjsSvg1006" width="829" height="604" xmlns="http://www.w3.org/2000/svg" version="1.1" xmlns:xlink="http://www.w3.org/1999/xlink" xmlns:svgjs="http://svgjs.com/svgjs"><defs id="SvgjsDefs1007"><marker id="SvgjsMarker1022" markerWidth="14" markerHeight="10" refX="10" refY="5" viewBox="0 0 14 10" orient="auto" markerUnits="userSpaceOnUse" stroke-dasharray="0,0"><path id="SvgjsPath1023" d="M0,0 L14,5 L0,10 L0,0" fill="#323232" stroke="#323232" stroke-width="1"></path></marker><marker id="SvgjsMarker1032" markerWidth="14" markerHeight="10" refX="10" refY="5" viewBox="0 0 14 10" orient="auto" markerUnits="userSpaceOnUse" stroke-dasharray="0,0"><path id="SvgjsPath1033" d="M0,0 L14,5 L0,10 L0,0" fill="#323232" stroke="#323232" stroke-width="1"></path></marker><marker id="SvgjsMarker1046" markerWidth="14" markerHeight="10" refX="10" refY="5" viewBox="0 0 14 10" orient="auto" markerUnits="userSpaceOnUse" stroke-dasharray="0,0"><path id="SvgjsPath1047" d="M0,0 L14,5 L0,10 L0,0" fill="#323232" stroke="#323232" stroke-width="1"></path></marker><marker id="SvgjsMarker1074" markerWidth="14" markerHeight="10" refX="10" refY="5" viewBox="0 0 14 10" orient="auto" markerUnits="userSpaceOnUse" stroke-dasharray="0,0"><path id="SvgjsPath1075" d="M0,0 L14,5 L0,10 L0,0" fill="#323232" stroke="#323232" stroke-width="1"></path></marker><marker id="SvgjsMarker1078" markerWidth="14" markerHeight="10" refX="10" refY="5" viewBox="0 0 14 10" orient="auto" markerUnits="userSpaceOnUse" stroke-dasharray="0,0"><path id="SvgjsPath1079" d="M0,0 L14,5 L0,10 L0,0" fill="#323232" stroke="#323232" stroke-width="1"></path></marker><marker id="SvgjsMarker1086" markerWidth="14" markerHeight="10" refX="10" refY="5" viewBox="0 0 14 10" orient="auto" markerUnits="userSpaceOnUse" stroke-dasharray="0,0"><path id="SvgjsPath1087" d="M0,0 L14,5 L0,10 L0,0" fill="#323232" stroke="#323232" stroke-width="1"></path></marker><marker id="SvgjsMarker1114" markerWidth="14" markerHeight="10" refX="10" refY="5" viewBox="0 0 14 10" orient="auto" markerUnits="userSpaceOnUse" stroke-dasharray="0,0"><path id="SvgjsPath1115" d="M0,0 L14,5 L0,10 L0,0" fill="#323232" stroke="#323232" stroke-width="1"></path></marker><marker id="SvgjsMarker1128" markerWidth="14" markerHeight="10" refX="10" refY="5" viewBox="0 0 14 10" orient="auto" markerUnits="userSpaceOnUse" stroke-dasharray="0,0"><path id="SvgjsPath1129" d="M0,0 L14,5 L0,10 L0,0" fill="#323232" stroke="#323232" stroke-width="1"></path></marker></defs><g id="SvgjsG1008" transform="translate(55,25)"><path id="SvgjsPath1009" d="M 0 4Q 0 0 4 0L 96 0Q 100 0 100 4L 100 66Q 100 70 96 70L 4 70Q 0 70 0 66Z" stroke="rgba(50,50,50,1)" stroke-width="2" fill-opacity="1" fill="#ffffff"></path><g id="SvgjsG1010"><text id="SvgjsText1011" font-family="微软雅黑" text-anchor="middle" font-size="13px" width="80px" fill="#323232" font-weight="400" align="middle" lineHeight="125%" anchor="middle" family="微软雅黑" size="13px" weight="400" font-style="" opacity="1" y="25.375" transform="rotate(0)"><tspan id="SvgjsTspan1012" dy="16" x="50"><tspan id="SvgjsTspan1013" style="text-decoration:;">lightdm</tspan></tspan></text></g></g><g id="SvgjsG1014" transform="translate(55,172)"><path id="SvgjsPath1015" d="M 0 4Q 0 0 4 0L 96 0Q 100 0 100 4L 100 66Q 100 70 96 70L 4 70Q 0 70 0 66Z" stroke="rgba(50,50,50,1)" stroke-width="2" fill-opacity="1" fill="#ffffff"></path><g id="SvgjsG1016"><text id="SvgjsText1017" font-family="微软雅黑" text-anchor="middle" font-size="13px" width="80px" fill="#323232" font-weight="400" align="middle" lineHeight="125%" anchor="middle" family="微软雅黑" size="13px" weight="400" font-style="" opacity="1" y="25.375" transform="rotate(0)"><tspan id="SvgjsTspan1018" dy="16" x="50"><tspan id="SvgjsTspan1019" style="text-decoration:;">systemd</tspan></tspan></text></g></g><g id="SvgjsG1020"><path id="SvgjsPath1021" d="M156 60L226 60L226 60L293.4 60" stroke="#323232" stroke-width="2" fill="none" marker-end="url(#SvgjsMarker1022)"></path></g><g id="SvgjsG1024" transform="translate(297,25)"><path id="SvgjsPath1025" d="M 0 4Q 0 0 4 0L 96 0Q 100 0 100 4L 100 66Q 100 70 96 70L 4 70Q 0 70 0 66Z" stroke="rgba(50,50,50,1)" stroke-width="2" fill-opacity="1" fill="#ffffff"></path><g id="SvgjsG1026"><text id="SvgjsText1027" font-family="微软雅黑" text-anchor="middle" font-size="13px" width="80px" fill="#323232" font-weight="400" align="middle" lineHeight="125%" anchor="middle" family="微软雅黑" size="13px" weight="400" font-style="" opacity="1" y="25.375" transform="rotate(0)"><tspan id="SvgjsTspan1028" dy="16" x="50"><tspan id="SvgjsTspan1029" style="text-decoration:;">startdde</tspan></tspan></text></g></g><g id="SvgjsG1030"><path id="SvgjsPath1031" d="M347 96L347 133.5L105 133.5L105 168.4" stroke="#323232" stroke-width="2" fill="none" marker-end="url(#SvgjsMarker1032)"></path><rect id="SvgjsRect1034" width="182" height="16" x="136.3" y="125.5" fill="#ffffff"></rect><text id="SvgjsText1035" font-family="微软雅黑" text-anchor="middle" font-size="13px" width="182px" fill="#323232" font-weight="400" align="top" lineHeight="16px" anchor="middle" family="微软雅黑" size="13px" weight="400" font-style="" opacity="1" y="123.875" transform="rotate(0)"><tspan id="SvgjsTspan1036" dy="16" x="227.3"><tspan id="SvgjsTspan1037" style="text-decoration:;">dde-session-manager.service</tspan></tspan></text></g><g id="SvgjsG1038" transform="translate(449,137)"><path id="SvgjsPath1039" d="M 18 0Q 9 0 9 9L 9 61Q 9 70 0 70Q 9 70 9 79L 9 131Q 9 140 18 140" stroke="rgba(50,50,50,1)" stroke-width="2" fill="none"></path><path id="SvgjsPath1040" d="M 182 140Q 191 140 191 131L 191 79Q 191 70 200 70Q 191 70 191 61L 191 9Q 191 0 182 0" stroke="rgba(50,50,50,1)" stroke-width="2" fill="none"></path><path id="SvgjsPath1041" d="M 0 0L 200 0L 200 140L 0 140Z" stroke="none" fill="none"></path><g id="SvgjsG1042"><text id="SvgjsText1043" font-family="微软雅黑" text-anchor="middle" font-size="13px" width="180px" fill="#323232" font-weight="400" align="middle" lineHeight="125%" anchor="middle" family="微软雅黑" size="13px" weight="400" font-style="" opacity="1" y="60.375" transform="rotate(0)"></text></g></g><g id="SvgjsG1044"><path id="SvgjsPath1045" d="M156 207L302 207L302 207L445.4 207" stroke="#323232" stroke-width="2" fill="none" marker-end="url(#SvgjsMarker1046)"></path></g><g id="SvgjsG1048" transform="translate(485,138)"><path id="SvgjsPath1049" d="M 0 0L 120 0L 120 40L 0 40Z" stroke="none" fill="none"></path><g id="SvgjsG1050"><text id="SvgjsText1051" font-family="微软雅黑" text-anchor="middle" font-size="13px" width="120px" fill="#323232" font-weight="400" align="middle" lineHeight="125%" anchor="middle" family="微软雅黑" size="13px" weight="400" font-style="" opacity="1" y="10.375" transform="rotate(0)"><tspan id="SvgjsTspan1052" dy="16" x="60"><tspan id="SvgjsTspan1053" style="text-decoration:;">startdde</tspan></tspan></text></g></g><g id="SvgjsG1054" transform="translate(485,172)"><path id="SvgjsPath1055" d="M 0 0L 120 0L 120 40L 0 40Z" stroke="none" fill="none"></path><g id="SvgjsG1056"><text id="SvgjsText1057" font-family="微软雅黑" text-anchor="middle" font-size="13px" width="120px" fill="#323232" font-weight="400" align="middle" lineHeight="125%" anchor="middle" family="微软雅黑" size="13px" weight="400" font-style="" opacity="1" y="10.375" transform="rotate(0)"><tspan id="SvgjsTspan1058" dy="16" x="60"><tspan id="SvgjsTspan1059" style="text-decoration:;">dde-components</tspan></tspan></text></g></g><g id="SvgjsG1060" transform="translate(485,202)"><path id="SvgjsPath1061" d="M 0 0L 120 0L 120 40L 0 40Z" stroke="none" fill="none"></path><g id="SvgjsG1062"><text id="SvgjsText1063" font-family="微软雅黑" text-anchor="middle" font-size="13px" width="120px" fill="#323232" font-weight="400" align="middle" lineHeight="125%" anchor="middle" family="微软雅黑" size="13px" weight="400" font-style="" opacity="1" y="10.375" transform="rotate(0)"><tspan id="SvgjsTspan1064" dy="16" x="60"><tspan id="SvgjsTspan1065" style="text-decoration:;">launch-service</tspan></tspan></text></g></g><g id="SvgjsG1066" transform="translate(197,305)"><path id="SvgjsPath1067" d="M 0 4Q 0 0 4 0L 96 0Q 100 0 100 4L 100 66Q 100 70 96 70L 4 70Q 0 70 0 66Z" stroke="rgba(50,50,50,1)" stroke-width="2" fill-opacity="1" fill="#ffffff"></path><g id="SvgjsG1068"><text id="SvgjsText1069" font-family="微软雅黑" text-anchor="middle" font-size="13px" width="80px" fill="#323232" font-weight="400" align="middle" lineHeight="125%" anchor="middle" family="微软雅黑" size="13px" weight="400" font-style="" opacity="1" y="25.375" transform="rotate(0)"><tspan id="SvgjsTspan1070" dy="16" x="50"><tspan id="SvgjsTspan1071" style="text-decoration:;">dbus.service</tspan></tspan></text></g></g><g id="SvgjsG1072"><path id="SvgjsPath1073" d="M105 243L105 340L193.39999999999998 340" stroke="#323232" stroke-width="2" fill="none" marker-end="url(#SvgjsMarker1074)"></path></g><g id="SvgjsG1076"><path id="SvgjsPath1077" d="M545 137L545 60L400.6 60" stroke="#323232" stroke-width="2" fill="none" marker-end="url(#SvgjsMarker1078)"></path><rect id="SvgjsRect1080" width="52" height="16" x="485.3" y="52" fill="#ffffff"></rect><text id="SvgjsText1081" font-family="微软雅黑" text-anchor="middle" font-size="13px" width="52px" fill="#323232" font-weight="400" align="top" lineHeight="16px" anchor="middle" family="微软雅黑" size="13px" weight="400" font-style="" opacity="1" y="50.375" transform="rotate(0)"><tspan id="SvgjsTspan1082" dy="16" x="511.3"><tspan id="SvgjsTspan1083" style="text-decoration:;">监听存活</tspan></tspan></text></g><g id="SvgjsG1084"><path id="SvgjsPath1085" d="M298 340L371 340L371 442L441.4 442" stroke="#323232" stroke-width="2" fill="none" marker-end="url(#SvgjsMarker1086)"></path></g><g id="SvgjsG1088" transform="translate(445,372)"><path id="SvgjsPath1089" d="M 18 0Q 9 0 9 9L 9 61Q 9 70 0 70Q 9 70 9 79L 9 131Q 9 140 18 140" stroke="rgba(50,50,50,1)" stroke-width="2" fill="none"></path><path id="SvgjsPath1090" d="M 182 140Q 191 140 191 131L 191 79Q 191 70 200 70Q 191 70 191 61L 191 9Q 191 0 182 0" stroke="rgba(50,50,50,1)" stroke-width="2" fill="none"></path><path id="SvgjsPath1091" d="M 0 0L 200 0L 200 140L 0 140Z" stroke="none" fill="none"></path><g id="SvgjsG1092"><text id="SvgjsText1093" font-family="微软雅黑" text-anchor="middle" font-size="13px" width="180px" fill="#323232" font-weight="400" align="middle" lineHeight="125%" anchor="middle" family="微软雅黑" size="13px" weight="400" font-style="" opacity="1" y="60.375" transform="rotate(0)"></text></g></g><g id="SvgjsG1094" transform="translate(485,420)"><path id="SvgjsPath1095" d="M 0 0L 120 0L 120 40L 0 40Z" stroke="none" fill="none"></path><g id="SvgjsG1096"><text id="SvgjsText1097" font-family="微软雅黑" text-anchor="middle" font-size="13px" width="120px" fill="#323232" font-weight="400" align="middle" lineHeight="125%" anchor="middle" family="微软雅黑" size="13px" weight="400" font-style="" opacity="1" y="10.375" transform="rotate(0)"><tspan id="SvgjsTspan1098" dy="16" x="60"><tspan id="SvgjsTspan1099" style="text-decoration:;">org.gnome.gedit</tspan></tspan></text></g></g><g id="SvgjsG1100" transform="translate(477,375)"><path id="SvgjsPath1101" d="M 0 0L 144 0L 144 31L 0 31Z" stroke="none" fill="none"></path><g id="SvgjsG1102"><text id="SvgjsText1103" font-family="微软雅黑" text-anchor="middle" font-size="13px" width="144px" fill="#323232" font-weight="400" align="middle" lineHeight="125%" anchor="middle" family="微软雅黑" size="13px" weight="400" font-style="" opacity="1" y="5.875" transform="rotate(0)"><tspan id="SvgjsTspan1104" dy="16" x="72"><tspan id="SvgjsTspan1105" style="text-decoration:;">dde-network-service</tspan></tspan></text></g></g><g id="SvgjsG1106" transform="translate(473.5,237)"><path id="SvgjsPath1107" d="M 0 0L 143 0L 143 35L 0 35Z" stroke="none" fill="none"></path><g id="SvgjsG1108"><text id="SvgjsText1109" font-family="微软雅黑" text-anchor="middle" font-size="13px" width="143px" fill="#323232" font-weight="400" align="middle" lineHeight="125%" anchor="middle" family="微软雅黑" size="13px" weight="400" font-style="" opacity="1" y="7.875" transform="rotate(0)"><tspan id="SvgjsTspan1110" dy="16" x="71.5"><tspan id="SvgjsTspan1111" style="text-decoration:;">dde-network-service</tspan></tspan></text></g></g><g id="SvgjsG1112"><path id="SvgjsPath1113" d="M617.5 254.5L651 254.5L651 390.5L624.6 390.5" stroke="#323232" stroke-width="2" fill="none" marker-end="url(#SvgjsMarker1114)"></path><rect id="SvgjsRect1116" width="140" height="16" x="581" y="310.94999999999993" fill="#ffffff"></rect><text id="SvgjsText1117" font-family="微软雅黑" text-anchor="middle" font-size="13px" width="140px" fill="#323232" font-weight="400" align="top" lineHeight="16px" anchor="middle" family="微软雅黑" size="13px" weight="400" font-style="" opacity="1" y="309.32499999999993" transform="rotate(0)"><tspan id="SvgjsTspan1118" dy="16" x="651"><tspan id="SvgjsTspan1119" style="text-decoration:;">systemd dbus 自动关联</tspan></tspan></text></g><g id="SvgjsG1120" transform="translate(485,474)"><path id="SvgjsPath1121" d="M 0 0L 120 0L 120 40L 0 40Z" stroke="none" fill="none"></path><g id="SvgjsG1122"><text id="SvgjsText1123" font-family="微软雅黑" text-anchor="middle" font-size="13px" width="120px" fill="#323232" font-weight="400" align="middle" lineHeight="125%" anchor="middle" family="微软雅黑" size="13px" weight="400" font-style="" opacity="1" y="10.375" transform="rotate(0)"><tspan id="SvgjsTspan1124" dy="16" x="60"><tspan id="SvgjsTspan1125" style="text-decoration:;">......</tspan></tspan></text></g></g><g id="SvgjsG1126"><path id="SvgjsPath1127" d="M606 158L804 158L804 561L25 561L25 207L51.400000000000006 207" stroke="#323232" stroke-width="2" fill="none" marker-end="url(#SvgjsMarker1128)"></path></g><g id="SvgjsG1130" transform="translate(659,120)"><path id="SvgjsPath1131" d="M 0 0L 120 0L 120 40L 0 40Z" stroke="none" fill="none"></path><g id="SvgjsG1132"><text id="SvgjsText1133" font-family="微软雅黑" text-anchor="middle" font-size="13px" width="120px" fill="#323232" font-weight="400" align="middle" lineHeight="125%" anchor="middle" family="微软雅黑" size="13px" weight="400" font-style="" opacity="1" y="10.375" transform="rotate(0)"><tspan id="SvgjsTspan1134" dy="16" x="60"><tspan id="SvgjsTspan1135" style="text-decoration:;">检测到会话已退出</tspan></tspan></text></g></g><g id="SvgjsG1136" transform="translate(100,539)"><path id="SvgjsPath1137" d="M 0 0L 120 0L 120 40L 0 40Z" stroke="none" fill="none"></path><g id="SvgjsG1138"><text id="SvgjsText1139" font-family="微软雅黑" text-anchor="middle" font-size="13px" width="120px" fill="#323232" font-weight="400" align="middle" lineHeight="125%" anchor="middle" family="微软雅黑" size="13px" weight="400" font-style="" opacity="1" y="2.375" transform="rotate(0)"><tspan id="SvgjsTspan1140" dy="16" x="60"><tspan id="SvgjsTspan1141" style="text-decoration:;">StopUnit </tspan></tspan><tspan id="SvgjsTspan1142" dy="16" x="60"><tspan id="SvgjsTspan1143" style="text-decoration:;">dbus.service</tspan></tspan></text></g></g></svg>